<?xml version="1.0" encoding="UTF-8" standalone="no"?>
<svg
   xmlns:dc="http://purl.org/dc/elements/1.1/"
   xmlns:cc="http://creativecommons.org/ns#"
   xmlns:rdf="http://www.w3.org/1999/02/22-rdf-syntax-ns#"
   xmlns:svg="http://www.w3.org/2000/svg"
   xmlns="http://www.w3.org/2000/svg"
   xmlns:sodipodi="http://sodipodi.sourceforge.net/DTD/sodipodi-0.dtd"
   xmlns:inkscape="http://www.inkscape.org/namespaces/inkscape"
   inkscape:version="1.0 (6e3e5246a0, 2020-05-07)"
   sodipodi:docname="traffic-lights-green.svg"
   id="svg8"
   version="1.1"
   style="height: 512px; width: 512px;"
   viewBox="0 0 512 512">
  <metadata
     id="metadata14">
    <rdf:RDF>
      <cc:Work
         rdf:about="">
        <dc:format>image/svg+xml</dc:format>
        <dc:type
           rdf:resource="http://purl.org/dc/dcmitype/StillImage" />
      </cc:Work>
    </rdf:RDF>
  </metadata>
  <defs
     id="defs12" />
  <sodipodi:namedview
     inkscape:current-layer="g6"
     inkscape:window-maximized="1"
     inkscape:window-y="0"
     inkscape:window-x="0"
     inkscape:cy="256"
     inkscape:cx="269.24755"
     inkscape:zoom="1.3964844"
     showgrid="false"
     id="namedview10"
     inkscape:window-height="1015"
     inkscape:window-width="1920"
     inkscape:pageshadow="2"
     inkscape:pageopacity="0"
     guidetolerance="10"
     gridtolerance="10"
     objecttolerance="10"
     borderopacity="1"
     bordercolor="#666666"
     pagecolor="#ffffff" />
  <path
     id="path2"
     fill-opacity="0"
     fill="#ffffff"
     d="M0 0h512v512H0z" />
  <g
     id="g6"
     style="touch-action: none;"
     transform="translate(0,0)"
     class="">
    <path
       sodipodi:nodetypes="ccccccccccccccccccccccccccsssccccccccccccccccccscccccssscccccccccccccssscccccccccccccc"
       id="path4"
       fill-opacity="1"
       fill="#000000"
       d="M 169,25 V 90.2 C 193.8,49.41 224.195,27.605 256.104,27.975 288.04,28.345 318.2,50.69 343,90.232 V 25 Z M 90.736,45 c 3.415,9.407 11.65,19.54 22.664,27.8 11.553,8.665 25.73,14.91 37.6,17.196 V 45 Z M 361,45 v 44.996 c 11.87,-2.285 26.047,-8.53 37.6,-17.195 11.014,-8.26 19.25,-18.392 22.664,-27.8 H 361 Z M 192.512,87.17 c -2.962,4.148 -5.897,8.63 -8.795,13.46 L 169,91.8 v 145.1 c 24.8,-40.79 55.195,-62.596 87.104,-62.226 31.937,0.37 62.097,22.716 86.896,62.258 V 91.66 l -14.648,9.082 c -2.686,-4.33 -5.406,-8.38 -8.153,-12.174 0.663,3.715 1.03,7.53 1.03,11.432 0,35.792 -29.21,65 -65,65 -35.79,0 -65,-29.208 -65,-65 0,-4.39 0.443,-8.68 1.28,-12.83 z M 90.736,193 c 3.415,9.407 11.65,19.54 22.664,27.8 11.553,8.665 25.73,14.91 37.6,17.196 V 193 Z M 361,193 v 44.996 c 11.87,-2.285 26.047,-8.53 37.6,-17.195 11.014,-8.26 19.25,-18.392 22.664,-27.8 H 361 Z m -169.592,42.45 c -2.587,3.704 -5.154,7.65 -7.69,11.88 L 169,238.498 V 378.2 c 16.455,-27.062 35.373,-45.76 55.56,-55.177 9.274,-5.108 19.912,-8.023 31.21,-8.023 12.692,0 24.548,3.688 34.576,10.025 19.094,10.035 36.95,28.167 52.654,53.207 V 238.36 l -14.648,9.08 c -2.378,-3.833 -4.785,-7.443 -7.21,-10.858 0.058,1.132 0.088,2.272 0.088,3.418 0,35.792 -29.208,65 -65,65 -35.79,0 -65,-29.208 -65,-65 0,-1.53 0.073,-3.046 0.178,-4.55 z M 90.736,333.823 c 3.416,9.407 11.65,19.54 22.664,27.8 11.553,8.663 25.73,14.91 37.6,17.196 v -44.997 z m 270.264,0 v 44.996 c 11.87,-2.286 26.047,-8.534 37.6,-17.198 11.013,-8.26 19.248,-18.392 22.664,-27.8 H 361 Z m -40.3,43.444 c 0.04,0.907 0.07,1.816 0.07,2.732 0,35.79 -29.21,65 -65,65 -35.792,0 -65,-29.21 -65,-65 0,-0.813 0.03,-1.618 0.06,-2.423 -2.39,3.465 -4.765,7.138 -7.113,11.053 L 169,379.8 V 455 h 174 v -75.34 l -14.648,9.082 c -2.522,-4.066 -5.075,-7.88 -7.65,-11.474 z M 201,473 v 14 h 110 v -14 z" />
  </g>
</svg>
